<?xml version="1.0" encoding="UTF-8" standalone="no"?>
<svg
   xmlns:dc="http://purl.org/dc/elements/1.1/"
   xmlns:cc="http://creativecommons.org/ns#"
   xmlns:rdf="http://www.w3.org/1999/02/22-rdf-syntax-ns#"
   xmlns:svg="http://www.w3.org/2000/svg"
   xmlns="http://www.w3.org/2000/svg"
   xmlns:sodipodi="http://sodipodi.sourceforge.net/DTD/sodipodi-0.dtd"
   xmlns:inkscape="http://www.inkscape.org/namespaces/inkscape"
   height="511pt"
   viewBox="-8 0 511 511.99486"
   width="511pt"
   version="1.1"
   id="svg22"
   sodipodi:docname="color-guide.svg"
   inkscape:version="0.92.4 5da689c313, 2019-01-14">
  <metadata
     id="metadata28">
    <rdf:RDF>
      <cc:Work
         rdf:about="">
        <dc:format>image/svg+xml</dc:format>
        <dc:type
           rdf:resource="http://purl.org/dc/dcmitype/StillImage" />
      </cc:Work>
    </rdf:RDF>
  </metadata>
  <defs
     id="defs26" />
  <sodipodi:namedview
     pagecolor="#ffffff"
     bordercolor="#666666"
     borderopacity="1"
     objecttolerance="10"
     gridtolerance="10"
     guidetolerance="10"
     inkscape:pageopacity="0"
     inkscape:pageshadow="2"
     inkscape:window-width="1366"
     inkscape:window-height="712"
     id="namedview24"
     showgrid="false"
     inkscape:zoom="0.34637965"
     inkscape:cx="340.66667"
     inkscape:cy="340.66667"
     inkscape:window-x="0"
     inkscape:window-y="0"
     inkscape:window-maximized="1"
     inkscape:current-layer="svg22" />
  <path
     d="m480.609375 61.445312-144.332031-59.375c-12.082032-5.375-26.242188.070313-31.617188 12.164063l-5 13.695313h22.386719c13.234375 0-38.671875 153.035156-39.070313 166.273437l62.625 233.578125 147.164063-334.695312c5.375-12.09375-.0625-26.265626-12.15625-31.640626zm0 0"
     fill="#23a24d"
     id="path2"
     style="fill:#c2d94c;fill-opacity:1" />
  <path
     d="m345.652344 428.214844h-.050782v-376.320313c.394532-13.242187-10.320312-23.964843-23.554687-23.964843h-156.742187c-13.230469 0-23.949219 10.734374-23.949219 23.964843v10.398438l16.605469-7.386719c12.085937-5.378906 49.019531 241.964844 54.394531 254.058594l131.578125 105.601562c1.976562 4.449219 2.46875 9.183594 1.71875 13.648438zm0 0"
     id="path4"
     style="fill:#ff9940;fill-opacity:1"
     fill="#ebba16" />
  <path
     d="m292.105469 297.882812 51.828125 116.683594c.828125 1.882813 1.347656 3.804688 1.667968 5.738282v-122.421876zm0 0"
     fill="#dc691d"
     id="path6"
     style="fill:#ff0000;fill-opacity:0" />
  <path
     d="m345.601562 299.296875v128.484375l47.421876-107.84375zm0 0"
     fill="#1c843c"
     id="path8"
     style="fill:#86b300;fill-opacity:1" />
  <path
     d="m331.777344 446.207031-143.238282 63.714844c-12.082031 5.378906-26.242187-.070313-31.621093-12.164063l-154.347657-347.488281c-5.375-12.09375.070313-26.261719 12.15625-31.636719l143.234376-63.726562c12.085937-5.378906 26.246093.070312 31.621093 12.164062l154.359375 347.488282c5.367188 12.101562-.078125 26.269531-12.164062 31.648437zm0 0"
     fill="#dd352e"
     id="path10"
     style="fill:#ff3333;fill-opacity:1" />
  <path
     d="m156.929688 497.757812c5.375 12.09375 19.527343 17.542969 31.621093 12.164063l143.234375-63.714844c12.085938-5.378906 17.53125-19.546875 12.15625-31.640625l-54.714844-123.160156-187.664062 81.707031zm0 0"
     fill="#b02721"
     id="path12"
     style="fill:#ff3333;fill-opacity:1" />
  <g
     fill="#fff"
     id="g20">
    <path
       d="m308.296875 404.945312c0-12.851562-10.445313-23.269531-23.324219-23.269531s-23.324218 10.417969-23.324218 23.269531c0 12.851563 10.445312 23.269532 23.324218 23.269532s23.324219-10.417969 23.324219-23.269532zm0 0"
       id="path14" />
    <path
       d="m162.09375 406.367188c-3.410156 0-6.648438-1.988282-8.097656-5.304688-1.949219-4.46875.097656-9.675781 4.574218-11.617188l68.394532-29.785156c4.46875-1.941406 9.675781.105469 11.617187 4.574219 1.953125 4.464844-.09375 9.671875-4.570312 11.613281l-68.398438 29.785156c-1.144531.496094-2.335937.734376-3.519531.734376zm0 0"
       id="path16" />
    <path
       d="m180.746094 449.03125c-3.40625 0-6.648438-1.988281-8.09375-5.304688-1.945313-4.476562.09375-9.675781 4.570312-11.617187l34.199219-14.894531c4.464844-1.949219 9.664063.105468 11.617187 4.574218 1.941407 4.476563-.097656 9.675782-4.574218 11.617188l-34.195313 14.890625c-1.148437.496094-2.351562.734375-3.523437.734375zm0 0"
       id="path18" />
  </g>
  <path
     inkscape:connector-curvature="0"
     style="fill:#dc691d;stroke-width:1"
     d="m 292.10547,297.88281 51.82812,116.6836 c 0.82813,1.88281 1.34766,3.80468 1.66797,5.73828 V 297.88281 Z m 0,0"
     id="path6-3" />
</svg>
